<?xml version="1.0" encoding="UTF-8"?>
<svg version="1.1" xmlns="http://www.w3.org/2000/svg" width="224" height="224">
<path d="M0 0 C73.92 0 147.84 0 224 0 C224 73.92 224 147.84 224 224 C150.08 224 76.16 224 0 224 C0 150.08 0 76.16 0 0 Z " fill="#FEFEFE" transform="translate(0,0)"/>
<path d="M0 0 C5.10108695 3.49370219 9.41487964 7.85114499 13.76806641 12.2109375 C14.42162109 12.79359375 15.07517578 13.37625 15.74853516 13.9765625 C33.29261339 29.87462881 43.30916047 58.3431123 45.76806641 81.2109375 C45.76806641 86.8209375 45.76806641 92.4309375 45.76806641 98.2109375 C9.46806641 98.2109375 -26.83193359 98.2109375 -64.23193359 98.2109375 C-64.23193359 63.8909375 -64.23193359 29.5709375 -64.23193359 -5.7890625 C-42.85719687 -14.94966395 -19.67280193 -12.28557213 0 0 Z " fill="#377DD1" transform="translate(120.23193359375,70.7890625)"/>
<path d="M0 0 C16.5 0 33 0 50 0 C50 19.47 50 38.94 50 59 C48.52221329 56.78331993 47.30578687 54.73399661 46.1171875 52.375 C39.93108945 40.27122048 33.08042096 29.91260658 23.6875 19.99609375 C22 18 22 18 22 16 C21.17435547 15.64035156 21.17435547 15.64035156 20.33203125 15.2734375 C17.4581485 13.70411459 15.180037 11.74735823 12.6875 9.625 C8.61173253 6.23216944 4.71457414 3.40967122 0 1 C0 0.67 0 0.34 0 0 Z " fill="#3F82D2" transform="translate(122,53)"/>
</svg>
